<mxfile host="app.diagrams.net" modified="2023-06-20T04:14:29.254Z" agent="Mozilla/5.0 (Windows NT 10.0; Win64; x64) AppleWebKit/537.36 (KHTML, like Gecko) Chrome/114.0.0.0 Safari/537.36" etag="f7Z6mvDOCxQ8jdonNTth" version="21.3.7" type="github">
  <diagram name="Page-1" id="JE1SuVtRGI_1Noui9gPa">
    <mxGraphModel dx="521" dy="563" grid="1" gridSize="10" guides="1" tooltips="1" connect="1" arrows="1" fold="1" page="1" pageScale="1" pageWidth="850" pageHeight="1100" math="0" shadow="0">
      <root>
        <mxCell id="0" />
        <mxCell id="1" parent="0" />
        <mxCell id="bxS1DKcICd2X9e8lT-Gr-3" value="" style="rounded=0;whiteSpace=wrap;html=1;" vertex="1" parent="1">
          <mxGeometry x="230" y="70" width="490" height="440" as="geometry" />
        </mxCell>
        <mxCell id="bxS1DKcICd2X9e8lT-Gr-4" value="Front Desk Staff" style="shape=umlActor;verticalLabelPosition=bottom;verticalAlign=top;html=1;outlineConnect=0;" vertex="1" parent="1">
          <mxGeometry x="150" y="100" width="30" height="60" as="geometry" />
        </mxCell>
        <mxCell id="bxS1DKcICd2X9e8lT-Gr-5" value="Patient" style="shape=umlActor;verticalLabelPosition=bottom;verticalAlign=top;html=1;outlineConnect=0;" vertex="1" parent="1">
          <mxGeometry x="150" y="400" width="30" height="60" as="geometry" />
        </mxCell>
        <mxCell id="bxS1DKcICd2X9e8lT-Gr-6" value="Medical Staff" style="shape=umlActor;verticalLabelPosition=bottom;verticalAlign=top;html=1;outlineConnect=0;" vertex="1" parent="1">
          <mxGeometry x="770" y="234" width="30" height="60" as="geometry" />
        </mxCell>
        <mxCell id="bxS1DKcICd2X9e8lT-Gr-9" value="UC01&lt;br&gt;Patient admissions" style="ellipse;whiteSpace=wrap;html=1;" vertex="1" parent="1">
          <mxGeometry x="430" y="130" width="120" height="44" as="geometry" />
        </mxCell>
        <mxCell id="bxS1DKcICd2X9e8lT-Gr-10" value="UC02&amp;nbsp;&lt;br&gt;Appointments&amp;nbsp;" style="ellipse;whiteSpace=wrap;html=1;" vertex="1" parent="1">
          <mxGeometry x="430" y="190" width="120" height="44" as="geometry" />
        </mxCell>
        <mxCell id="bxS1DKcICd2X9e8lT-Gr-11" value="UC03&lt;br&gt;Medical Records" style="ellipse;whiteSpace=wrap;html=1;" vertex="1" parent="1">
          <mxGeometry x="430" y="260" width="120" height="44" as="geometry" />
        </mxCell>
        <mxCell id="bxS1DKcICd2X9e8lT-Gr-12" value="UC04&lt;br&gt;Billing" style="ellipse;whiteSpace=wrap;html=1;" vertex="1" parent="1">
          <mxGeometry x="430" y="330" width="120" height="44" as="geometry" />
        </mxCell>
        <mxCell id="bxS1DKcICd2X9e8lT-Gr-13" value="&lt;b&gt;HOSPITAL MANAGEMENT SYSTEM&lt;/b&gt;" style="text;html=1;strokeColor=none;fillColor=none;align=center;verticalAlign=middle;whiteSpace=wrap;rounded=0;" vertex="1" parent="1">
          <mxGeometry x="375" y="70" width="230" height="30" as="geometry" />
        </mxCell>
      </root>
    </mxGraphModel>
  </diagram>
</mxfile>
